<svg height="457" viewBox="0 0 448 457" width="448" xmlns="http://www.w3.org/2000/svg"><g fill="none" fill-rule="nonzero"><path d="m54.8764161 194c-2.2274295-13.968747-5.6660497-23.341789-11.6390451-33.040078-5.9729953-9.698289-7.6611961-31.701072-.6761099-42.379327 6.9850863-10.678256 13.0534836-8.545139 18.2798546-2.944124 7.8354084 8.401523 5.0728981 31.405392 2.5426709 43.097407-2.5302272 11.692014-8.5032226 35.266122-8.5032226 35.266122z" fill="#e3d780"/><path d="m86.1450519 100.33103c5.6583762-5.6764552 11.3301609-21.252548 10.8832118-32.4315619-.4916441-2.8651399 3.2359123-4.3018502 5.4617183-.9978305 2.225807 3.2998793 3.687331 6.4341436 1.238049 14.0068904-1.653711 5.1092234-12.0631571 18.4950575-17.2298893 20.0684-.4380102.132492-.6659542-.33537-.3530898-.645898z" fill="#dad06e"/><path d="m126.744272 69.5878735c-.650895.9213114-2.085434.1542661-1.67006-.8913152 3.53282-8.9345781 20.785831-36.8010341 34.840033-48.2724323 18.520544-15.12664764 36.343088-20.38026521 50.658505-20.42311691 14.019944-.04285169 22.237499 1.24698427 28.151226 10.04015171.719411 1.0670071 1.35746 2.6225236 1.267534 3.1795956-1.991227.1199847-4.710428-.1156996-5.755286-.2571102 1.224711.2913916 4.73612 3.2610139 4.611936 3.4881279-.124184.2271139-6.162095 1.3455431-7.797898.8013266 1.468797.8827449 5.04444 2.733938 4.85174 2.90963-.132748.1242699-8.20899 1.4055355-8.20899 1.4055355l9.617836 1.2726953c-1.905582 1.6326495-4.449212 6.0378036-11.347847 7.0233925-18.169403 2.5968126-33.499703-.7670453-53.745976 6.0935107-22.164702 7.5119018-45.472753 33.6257236-45.472753 33.6257236z" fill="#ddc857"/><path d="m281 12.2774978c10.670809-5.97896333 24.428637-11.68404885 39.893455-2.31321414 10.318371 6.19385204 10.874629 11.36382244 6.581677 15.48463024-3.961745 3.8047948-11.103926-.0168541-17.668618-4.7106984-10.466989-7.4831846-23.49871-8.8104386-28.806514-8.4607177z" fill="#dad06e"/><path d="m416.26882 357.482984c.517012-.948706 1.974048-.378632 1.696314.663668-2.379967 8.887202-26.218095 40.628425-36.425889 50.030395-14.775452 13.609459-32.101784 19.816461-45.779118 21.450106-13.391054 1.599612-25.816449-2.246262-30.332832-5.862405-.965659-.77428-2.452605-3.024797-2.427295-3.569345 1.888919-.336089 5.45246-.191443 6.469394-.174426-1.204938-.140391-5.652956-2.161177-5.558954-2.390908.094003-.233986 5.785414-1.616629 7.40909-1.28054-1.499764-.676431-4.858209-2.641911-4.695842-2.833354.115367-.131883 7.396272-.80406 7.396272-.80406l-5.294039-1.45922c2.726067-1.939954 9.682237-4.620154 14.476354-4.692476 21.389795-.310563 32.922167.548802 49.915219-7.202505 10.045427-4.58612 25.679717-19.212353 30.755841-24.857789 5.076124-5.645437 12.395485-17.017141 12.395485-17.017141z" fill="#ddc857"/><path d="m360 392.995771c9.326466-.786685 32.411483-13.056419 38.735158-21.553453 6.323674-8.501264 10.683659-21.680337 3.681388-24.12498-8.325536-2.905655-15.709518 14.858179-19.683551 24.074226-6.336398 14.68477-16.846167 18.597043-22.732995 21.608436z" fill="#d7cc79"/><path d="m342 430.004129s-23.131028 10.632535-36.366789 12.019926c-15.070088 1.58146-25.028463-2.902785-30.5062-4.236497-12.714072-3.100984-29.387092 1.639268-39.551618 12.775558-11.456127 12.556714 42.631268 3.720355 63.305308-1.185063 13.913115-3.299183 43.119299-19.378053 43.119299-19.378053z" fill="#d2b750"/><g fill="#e3d780"><path d="m111 83c7.68891-6.0379433 15.281938-20.5475984 16.802369-32.5516549.999924-7.8843962-2.022676-14.7293703-3.954035-15.7180888-7.570198-3.883044-11.487707 8.7590317-10.474086 13.4871343 1.104938 9.7392996 5.06354 22.8419323-2.374248 34.7826094z"/><path d="m302 422.174793c-13.922008 3.116178-30.144247 3.072568-38.026591 3.980462-13.343832 1.538266-13.564288 2.759364-17.973409 4.844745.024957-2.037806 4.721087-9.618128 17.416029-9.970977 14.483548-.40439 26.238431 3.59193 38.583971 1.14577z"/><path d="m211.726601 45.5008556c6.74208 1.8202964 19.593122 4.4884021 33.333044 3.1252578 21.333149-2.1195233 49.844432-14.184182 47.840256-22.6124039-.004193-.0249355-.020964-.0457152-.025157-.0706507l-3.828059 2.4686212 2.578594-3.5616303-3.576489 2.7969395 1.672942-3.7860503-3.379426 2.9423969 1.018859-3.4535761c-6.079612-.8519652-15.593156-.0374033-20.58263 1.2592462-6.524053 1.6956186-14.964231 10.3316368-26.515494 14.0470364-8.695941 2.7969395-21.39604 4.2847617-28.377112 4.9330864-1.090137.0997423-1.211729 1.6208119-.155135 1.907571z"/><path d="m447.367086 282.752846c.722241 5.998552 1.410494 17.335815-1.465725 28.925875-4.46515 17.991372-18.340678 40.867279-25.303933 38.090806-.021243-.008569-.038237-.021423-.059479-.029992l2.587323-2.964999-3.369043 1.756719 2.837983-2.707918-3.449764.951199 2.939947-2.519392-3.084395.432753c.025491-5.308719 1.903318-13.351063 3.636697-17.455787 2.264439-5.368704 10.706164-11.504366 15.324259-20.922093 3.475255-7.091146 6.325983-17.772853 7.749223-23.664288.220921-.921207 1.537949-.831228 1.652658.107117z"/></g><path d="m28.2689346 181.692431 10.3478398-3.716085-7.0576491 8.416953 8.2782719-7.162827-4.1771484 11.013583 5.7314362-9.246023c1.4318031 2.125281 1.6894432 6.034955 1.5036045 8.28649-1.2037283 14.632872-7.9234889 38.267675-7.1801338 57.096398 1.3050949 33.213295 9.5791432 50.40913 37.0410432 87.708855.8447216 1.148914-.6926718 2.546128-1.7612446 1.595013-30.8154448-27.42664-55.2912539-54.512394-66.67810137-90.658997-11.01094636-34.951396-.45614968-60.008664 25.94140107-68.236235 2.5806245-.803819 4.9120562-.875363 6.6268411-.728067z" fill="#ddc857"/><path d="m133 342.226044-11.475414-2.817286 10.484082 5.215157-10.823109-.923562 10.196554 4.558496-10.363922-1.016765 9.788863 4.084005c-2.61351 2.749502-14.04601 3.495129-20.470353 1.690372-34.2631666-9.650793-44.4382627-37.633008-53.145673-57.345536-5.0510705-12.853602-5.7248327-16.251292-13.0804273-41.399275-.8025065-2.741029 2.9654119-4.897417 4.7463755-1.614114 11.8101495 21.784186 17.067211 32.222972 26.8389081 40.712958 17.5349822 15.234526 39.7176357 21.602016 50.5064137 33.184662 5.149774 5.528659 6.793411 15.679361 6.793411 15.679361z" fill="#e3d780"/><path d="m60.1261106 336.461574c-24.4751908-23.532248-39.3757039-32.871251-47.9156238-33.461574l2.5805594 4.05582s-5.97203106-3.767029-6.0902891-3.728806l4.4093355 5.699382s-6.58443874-4.637649-6.70692028-4.548464l5.13155428 8.06917-6.87586038-6.196273 4.24884245 9.215842-4.90770867-6.293953c.11825804 12.965882 25.7506883 52.759632 48.8616881 61.079371 29.8221437 8.846359 56.1894629 6.935239 86.1383119-3.180952-30.878019 2.157441-50.2469966-4.268166-78.8696659-30.705316z" fill="#d2b750"/><path d="m27.7728286 148.452094c2.391417-6.897575 8.4193334-14.469221 18.9123731-27.649652 3.9842638-5.002544 9.8619117-13.888418 7.9384739-18.924877l-2.5073384 6.083602.8114503-6.7068c-.0901612-.016958-2.5073385 6.63049-2.5073385 6.63049l.8844379-6.884857c-.1073347 0-2.9753177 6.456673-2.9753177 6.456673l.7985701-6.231982c-.4293388.07631-3.0654788 5.689333-3.0654788 5.689333l1.8590369-5.710531c-4.1602928.678311-17.1349106 10.852976-21.4755256 18.331355-7.3889204 12.73105-6.6375775 26.933187-7.4576146 37.018823-.3778181 4.625234-2.1123467 14.816856-3.9885572 19.446329 2.9109169-3.747668 9.8790852-19.166525 12.7814154-27.543666z" fill="#d2b750"/><path d="m70.9819336 49.4288952 3.0093712 7.6957627-.9621511-8.5735739 3.9418524 6.8989146-1.3224279-8.0707501 3.7299248 6.6091517-1.1486473-6.9884002c2.8567833.3238527 7.9515215 4.4444521 9.8461538 8.9656062 8.7907546 20.9438946-4.2385509 49.7880908-12.7707539 61.0377098-7.069903 9.319288-12.6351203 15.059151-26.8851285 25.797424-.8349945.630661-1.8734395-.366465-1.207987-1.171835 12.7495612-15.412832 15.1824894-24.582976 17.064406-33.92357 2.8779761-14.2793469-3.7511176-35.7644164-.8010861-47.9515046 1.4071989-5.8165648 7.5064736-10.320674 7.5064736-10.320674z" fill="#d2b750"/><path d="m202 425.147355c-11.205288-1.272816-17.871778-1.002184-26.962062.651208-16.158625 2.938895-23.108526 3.082668-34.956775-.465148-22.833575-6.833458-30.561798-18.013942-34.081163-40.696286l3.206345 2.841636-.21996-3.623932 3.790086 2.596376-1.112492-3.201069c-.444151-1.069842 11.645208 1.496933 15.718704 3.818448 10.274686 5.848188 9.208725 17.383877 24.314078 25.731183 8.713814 4.816403 16.277066 6.101905 23.133907 6.808086 8.417713.866868 20.202511 1.856366 27.169332 5.543727z" fill="#ddc857"/><path d="m197.851791 400.790149c5.064002.964621 13.743917 5.783496 22.841882 5.538109 10.347804-.279232 20.932645-6.155805 30.422801.021154l-5.857003 2.056166 6.197476-.973082-5.930269 3.080018s6.486232-.973083 6.473322-.90539l-6.51642 2.936171 6.214715-1.286161c-3.159075 6.13042-12.756975 12.442765-21.561874 12.726228-12.825932.414618-20.299107-6.972348-32.620794-16.30548-4.706289-3.56656-7.718832-6.350422-12.515627-7.530814 4.555447.029616 6.171618-.634619 12.856101.63885z" fill="#e3d780"/><path d="m150.420353 383.176366c6.090643-1.068866 14.93068-6.094197 24.778129-12.28368 10.472883-6.583059 18.930943-11.749247 29.324073-12.892686l-5.150392 6.206055 6.422249-5.360905-4.755822 6.380057s6.308915-4.644184 6.329903-4.565469l-4.260512 6.686631 4.890144-4.756043c.176297 8.285788-12.118322 20.963044-21.310953 26.104375-11.4719 6.4132-23.334172 6.276484-36.820895 3.455174-7.32892-1.532871-18.687486-7.005634-24.866277-11.136099 8.730901 3.177599 16.563526 3.720318 25.424551 2.16259z" fill="#e3d780"/><path d="m125.449731 80.2530729c-8.820871 12.7906203-2.326798 23.4932391.763022 25.4047291 3.467139 2.148273 8.996953-6.2769183 11.919076-12.4720387 5.152495-10.9221822 11.005126-30.6484098 34.042524-46.3665365 1.077454-.7835385 6.246719-3.6335521 5.798129-4.4945835-1.14034-2.1913247-20.253624 7.2886302-25.905019 11.1245247-8.753792 5.9454212-23.825574 21.4870365-26.617732 26.8039049z" fill="#e3d780"/></g></svg>